<svg width="17" height="16" viewBox="0 0 17 16" fill="none" xmlns="http://www.w3.org/2000/svg">
<path d="M13.7084 12.8125H3.45837C3.38962 12.8125 3.33337 12.8688 3.33337 12.9375L3.33337 13.875C3.33337 13.9438 3.38962 14 3.45837 14H13.7084C13.7771 14 13.8334 13.9438 13.8334 13.875V12.9375C13.8334 12.8688 13.7771 12.8125 13.7084 12.8125ZM13.7084 1.5L3.45837 1.5C3.38962 1.5 3.33337 1.55625 3.33337 1.625V2.5625C3.33337 2.63125 3.38962 2.6875 3.45837 2.6875L13.7084 2.6875C13.7771 2.6875 13.8334 2.63125 13.8334 2.5625V1.625C13.8334 1.55625 13.7771 1.5 13.7084 1.5ZM10.1271 5.65625C10.2209 5.65625 10.274 5.54688 10.2162 5.47344L8.64119 3.47969C8.63076 3.4662 8.61739 3.45528 8.60208 3.44776C8.58678 3.44024 8.56996 3.43634 8.55291 3.43634C8.53586 3.43634 8.51903 3.44024 8.50373 3.44776C8.48843 3.45528 8.47505 3.4662 8.46462 3.47969L6.88962 5.47344C6.8765 5.49012 6.86835 5.51016 6.86609 5.53126C6.86383 5.55237 6.86756 5.57368 6.87686 5.59276C6.88615 5.61184 6.90063 5.62792 6.91864 5.63914C6.93665 5.65037 6.95746 5.6563 6.97869 5.65625H8.02087V9.84375H7.03962C6.94587 9.84375 6.89275 9.95313 6.95056 10.0266L8.52556 12.0188C8.57087 12.0766 8.65837 12.0766 8.70212 12.0188L10.2771 10.0266C10.3349 9.95313 10.2834 9.84375 10.1881 9.84375H9.14587V5.65625H10.1271Z" fill="#A3A3A3"/>
</svg>
