<svg width="17" height="16" viewBox="0 0 17 16" fill="none" xmlns="http://www.w3.org/2000/svg">
<path d="M8.16669 2.5C7.34419 2.5 6.66669 3.1775 6.66669 4C6.66669 4.176 6.70369 4.342 6.76069 4.5H4.26069L4.18219 4.9065L2.68219 12.4065L2.66669 12.453V13.5H13.6667V12.453L13.6512 12.4065L12.1512 4.9065L12.0727 4.5H9.57269C9.63275 4.34004 9.66455 4.17085 9.66669 4C9.66669 3.1775 8.98919 2.5 8.16669 2.5ZM8.16669 3.5C8.44819 3.5 8.66669 3.719 8.66669 4C8.66669 4.2815 8.44769 4.5 8.16669 4.5C7.88519 4.5 7.66669 4.281 7.66669 4C7.66669 3.7185 7.88569 3.5 8.16669 3.5ZM5.07269 5.5H11.2607L12.6667 12.5H3.66669L5.07269 5.5Z" fill="#A3A3A3"/>
</svg>
