<svg width="121" height="34" viewBox="0 0 121 34" fill="none" xmlns="http://www.w3.org/2000/svg">
<rect x="0.5" width="120" height="34" rx="15" fill="black"/>
<g clip-path="url(#clip0_1_20)">
<path d="M28.07 16.3049L17.625 11.0799C17.506 11.0212 17.3741 10.9938 17.2416 11.0003C17.1092 11.0069 16.9805 11.0471 16.8679 11.1171C16.7553 11.1872 16.6624 11.2848 16.598 11.4008C16.5337 11.5168 16.4999 11.6472 16.5 11.7799V22.2199C16.4999 22.3525 16.5337 22.4829 16.598 22.5989C16.6624 22.7149 16.7553 22.8125 16.8679 22.8826C16.9805 22.9526 17.1092 22.9928 17.2416 22.9994C17.3741 23.0059 17.506 22.9785 17.625 22.9199L28.07 17.6949C28.1997 17.6309 28.3089 17.5319 28.3852 17.409C28.4616 17.2862 28.5021 17.1445 28.5021 16.9999C28.5021 16.8552 28.4616 16.7135 28.3852 16.5907C28.3089 16.4679 28.1997 16.3688 28.07 16.3049Z" fill="white"/>
</g>
<path d="M45.016 15.084C45.016 15.78 44.776 16.36 44.296 16.824C43.824 17.28 43.1 17.508 42.124 17.508H40.516V21H39.424V12.636H42.124C43.068 12.636 43.784 12.864 44.272 13.32C44.768 13.776 45.016 14.364 45.016 15.084ZM42.124 16.608C42.732 16.608 43.18 16.476 43.468 16.212C43.756 15.948 43.9 15.572 43.9 15.084C43.9 14.052 43.308 13.536 42.124 13.536H40.516V16.608H42.124ZM47.4652 12.12V21H46.3732V12.12H47.4652ZM48.9183 17.688C48.9183 17.016 49.0543 16.428 49.3263 15.924C49.5983 15.412 49.9703 15.016 50.4423 14.736C50.9223 14.456 51.4543 14.316 52.0383 14.316C52.6143 14.316 53.1143 14.44 53.5383 14.688C53.9623 14.936 54.2783 15.248 54.4863 15.624V14.424H55.5903V21H54.4863V19.776C54.2703 20.16 53.9463 20.48 53.5143 20.736C53.0903 20.984 52.5943 21.108 52.0263 21.108C51.4423 21.108 50.9143 20.964 50.4423 20.676C49.9703 20.388 49.5983 19.984 49.3263 19.464C49.0543 18.944 48.9183 18.352 48.9183 17.688ZM54.4863 17.7C54.4863 17.204 54.3863 16.772 54.1863 16.404C53.9863 16.036 53.7143 15.756 53.3703 15.564C53.0343 15.364 52.6623 15.264 52.2543 15.264C51.8463 15.264 51.4743 15.36 51.1383 15.552C50.8023 15.744 50.5343 16.024 50.3343 16.392C50.1343 16.76 50.0343 17.192 50.0343 17.688C50.0343 18.192 50.1343 18.632 50.3343 19.008C50.5343 19.376 50.8023 19.66 51.1383 19.86C51.4743 20.052 51.8463 20.148 52.2543 20.148C52.6623 20.148 53.0343 20.052 53.3703 19.86C53.7143 19.66 53.9863 19.376 54.1863 19.008C54.3863 18.632 54.4863 18.196 54.4863 17.7ZM63.0997 14.424L59.1397 24.096H58.0117L59.3077 20.928L56.6557 14.424H57.8677L59.9317 19.752L61.9717 14.424L63.0997 14.424ZM69.7247 21.108C69.2207 21.108 68.7687 21.024 68.3687 20.856C67.9687 20.68 67.6527 20.44 67.4207 20.136C67.1887 19.824 67.0607 19.468 67.0367 19.068H68.1647C68.1967 19.396 68.3487 19.664 68.6207 19.872C68.9007 20.08 69.2647 20.184 69.7127 20.184C70.1287 20.184 70.4567 20.092 70.6967 19.908C70.9367 19.724 71.0567 19.492 71.0567 19.212C71.0567 18.924 70.9287 18.712 70.6727 18.576C70.4167 18.432 70.0207 18.292 69.4847 18.156C68.9967 18.028 68.5967 17.9 68.2847 17.772C67.9807 17.636 67.7167 17.44 67.4927 17.184C67.2767 16.92 67.1687 16.576 67.1687 16.152C67.1687 15.816 67.2687 15.508 67.4687 15.228C67.6687 14.948 67.9527 14.728 68.3207 14.568C68.6887 14.4 69.1087 14.316 69.5807 14.316C70.3087 14.316 70.8967 14.5 71.3447 14.868C71.7927 15.236 72.0327 15.74 72.0647 16.38H70.9727C70.9487 16.036 70.8087 15.76 70.5527 15.552C70.3047 15.344 69.9687 15.24 69.5447 15.24C69.1527 15.24 68.8407 15.324 68.6087 15.492C68.3767 15.66 68.2607 15.88 68.2607 16.152C68.2607 16.368 68.3287 16.548 68.4647 16.692C68.6087 16.828 68.7847 16.94 68.9927 17.028C69.2087 17.108 69.5047 17.2 69.8807 17.304C70.3527 17.432 70.7367 17.56 71.0327 17.688C71.3287 17.808 71.5807 17.992 71.7887 18.24C72.0047 18.488 72.1167 18.812 72.1247 19.212C72.1247 19.572 72.0247 19.896 71.8247 20.184C71.6247 20.472 71.3407 20.7 70.9727 20.868C70.6127 21.028 70.1967 21.108 69.7247 21.108ZM76.5342 21.108C75.9182 21.108 75.3582 20.968 74.8542 20.688C74.3582 20.408 73.9662 20.012 73.6782 19.5C73.3982 18.98 73.2582 18.38 73.2582 17.7C73.2582 17.028 73.4022 16.436 73.6902 15.924C73.9862 15.404 74.3862 15.008 74.8902 14.736C75.3942 14.456 75.9582 14.316 76.5822 14.316C77.2062 14.316 77.7702 14.456 78.2742 14.736C78.7782 15.008 79.1742 15.4 79.4622 15.912C79.7582 16.424 79.9062 17.02 79.9062 17.7C79.9062 18.38 79.7542 18.98 79.4502 19.5C79.1542 20.012 78.7502 20.408 78.2382 20.688C77.7262 20.968 77.1582 21.108 76.5342 21.108ZM76.5342 20.148C76.9262 20.148 77.2942 20.056 77.6382 19.872C77.9822 19.688 78.2582 19.412 78.4662 19.044C78.6822 18.676 78.7902 18.228 78.7902 17.7C78.7902 17.172 78.6862 16.724 78.4782 16.356C78.2702 15.988 77.9982 15.716 77.6622 15.54C77.3262 15.356 76.9622 15.264 76.5702 15.264C76.1702 15.264 75.8022 15.356 75.4662 15.54C75.1382 15.716 74.8742 15.988 74.6742 16.356C74.4742 16.724 74.3742 17.172 74.3742 17.7C74.3742 18.236 74.4702 18.688 74.6622 19.056C74.8622 19.424 75.1262 19.7 75.4542 19.884C75.7822 20.06 76.1422 20.148 76.5342 20.148ZM87.174 14.424V21L86.082 21V20.028C85.874 20.364 85.582 20.628 85.206 20.82C84.838 21.004 84.43 21.096 83.982 21.096C83.47 21.096 83.01 20.992 82.602 20.784C82.194 20.568 81.87 20.248 81.63 19.824C81.398 19.4 81.282 18.884 81.282 18.276V14.424H82.362V18.132C82.362 18.78 82.526 19.28 82.854 19.632C83.182 19.976 83.63 20.148 84.198 20.148C84.782 20.148 85.242 19.968 85.578 19.608C85.914 19.248 86.082 18.724 86.082 18.036V14.424H87.174ZM92.2218 14.304C93.0218 14.304 93.6698 14.548 94.1658 15.036C94.6618 15.516 94.9098 16.212 94.9098 17.124V21H93.8298V17.28C93.8298 16.624 93.6658 16.124 93.3378 15.78C93.0098 15.428 92.5618 15.252 91.9938 15.252C91.4178 15.252 90.9578 15.432 90.6138 15.792C90.2778 16.152 90.1098 16.676 90.1098 17.364V21H89.0178V14.424H90.1098V15.36C90.3258 15.024 90.6178 14.764 90.9858 14.58C91.3618 14.396 91.7738 14.304 92.2218 14.304ZM96.2855 17.688C96.2855 17.016 96.4215 16.428 96.6935 15.924C96.9655 15.412 97.3375 15.016 97.8095 14.736C98.2895 14.456 98.8255 14.316 99.4175 14.316C99.9295 14.316 100.406 14.436 100.846 14.676C101.286 14.908 101.622 15.216 101.854 15.6V12.12H102.958V21H101.854V19.764C101.638 20.156 101.318 20.48 100.894 20.736C100.47 20.984 99.9735 21.108 99.4055 21.108C98.8215 21.108 98.2895 20.964 97.8095 20.676C97.3375 20.388 96.9655 19.984 96.6935 19.464C96.4215 18.944 96.2855 18.352 96.2855 17.688ZM101.854 17.7C101.854 17.204 101.754 16.772 101.554 16.404C101.354 16.036 101.082 15.756 100.738 15.564C100.402 15.364 100.03 15.264 99.6215 15.264C99.2135 15.264 98.8415 15.36 98.5055 15.552C98.1695 15.744 97.9015 16.024 97.7015 16.392C97.5015 16.76 97.4015 17.192 97.4015 17.688C97.4015 18.192 97.5015 18.632 97.7015 19.008C97.9015 19.376 98.1695 19.66 98.5055 19.86C98.8415 20.052 99.2135 20.148 99.6215 20.148C100.03 20.148 100.402 20.052 100.738 19.86C101.082 19.66 101.354 19.376 101.554 19.008C101.754 18.632 101.854 18.196 101.854 17.7Z" fill="white"/>
<defs>
<clipPath id="clip0_1_20">
<rect width="12" height="12" fill="white" transform="translate(16.5 11)"/>
</clipPath>
</defs>
</svg>
